<?xml version="1.0" encoding="UTF-8"?>
<svg id="Camada_1" data-name="Camada 1" xmlns="http://www.w3.org/2000/svg" version="1.1" viewBox="0 0 128 128">
  <defs>
    <style>
      .cls-1 {
        fill: #aa6f0b;
      }

      .cls-1, .cls-2, .cls-3, .cls-4, .cls-5, .cls-6, .cls-7, .cls-8, .cls-9, .cls-10, .cls-11, .cls-12, .cls-13, .cls-14, .cls-15, .cls-16, .cls-17, .cls-18, .cls-19, .cls-20, .cls-21, .cls-22, .cls-23, .cls-24, .cls-25, .cls-26, .cls-27, .cls-28, .cls-29, .cls-30, .cls-31, .cls-32, .cls-33, .cls-34, .cls-35, .cls-36, .cls-37, .cls-38, .cls-39, .cls-40, .cls-41 {
        stroke-width: 0px;
      }

      .cls-2 {
        fill: #8b530a;
      }

      .cls-3 {
        fill: #c7820e;
      }

      .cls-4 {
        fill: #a4670b;
      }

      .cls-5 {
        fill: #c6820d;
      }

      .cls-6 {
        fill: #e1970e;
      }

      .cls-7 {
        fill: #000;
      }

      .cls-8 {
        fill: #478cbf;
      }

      .cls-9 {
        fill: #cd8916;
      }

      .cls-10 {
        fill: #dd940e;
      }

      .cls-42 {
        fill: #255aaf;
        stroke: #08295e;
        stroke-width: 4px;
      }

      .cls-11 {
        fill: #e69b0f;
      }

      .cls-12 {
        fill: #283c86;
      }

      .cls-13 {
        fill: #a6690b;
      }

      .cls-14 {
        fill: #c3800d;
      }

      .cls-15 {
        fill: #414042;
      }

      .cls-16 {
        fill: #ea9e10;
      }

      .cls-17 {
        fill: #ac710b;
      }

      .cls-18 {
        fill: #c1800d;
      }

      .cls-19 {
        fill: #b4740c;
      }

      .cls-20 {
        fill: #aa6814;
      }

      .cls-21 {
        fill: #cf890e;
      }

      .cls-22 {
        fill: #cb860d;
      }

      .cls-23 {
        fill: #aa6c0b;
      }

      .cls-24 {
        fill: #c9840d;
      }

      .cls-25 {
        fill: #fec75d;
      }

      .cls-26 {
        fill: #f3a610;
      }

      .cls-27 {
        fill: #c4800d;
      }

      .cls-28 {
        fill: #cb850d;
      }

      .cls-29 {
        fill: #0d0702;
      }

      .cls-30 {
        fill: #dc9617;
      }

      .cls-31 {
        fill: #b8770c;
      }

      .cls-32 {
        fill: #ba780d;
      }

      .cls-33 {
        fill: #cc8916;
      }

      .cls-34 {
        fill: #fff;
      }

      .cls-43 {
        display: none;
      }

      .cls-35 {
        fill: #db920e;
      }

      .cls-36 {
        fill: #8c530a;
      }

      .cls-37 {
        fill: #d8900e;
      }

      .cls-38 {
        fill: #cd870d;
      }

      .cls-39 {
        fill: #f2a510;
      }

      .cls-40 {
        fill: #cb850e;
      }

      .cls-41 {
        fill: #b6780c;
      }
    </style>
  </defs>
  <rect class="cls-42" x="2" y="2" width="124" height="124" rx="14" ry="14"/>
  <g class="cls-43">
    <g>
      <path class="cls-34" d="M22.9,80.3v3.3c27.4,23.8,54.8,23.8,82.2,0v-3.3H22.9Z"/>
      <path class="cls-8" d="M22.9,80.3l15.4,1.4c.8,0,1.3.5,1.5,1.4l.4,6.8,13.3,1,.8-6.2c0-.7.6-1.2,1.5-1.5h16.4c.9.3,1.4.8,1.5,1.5l.8,6.2,13.3-1,.4-6.8c.2-.9.7-1.3,1.5-1.4l15.4-1.4v-24.8c2-2.6,3.9-5.4,5.7-8.2-2.4-4-5.2-7.6-8.4-10.9-2.9,1.3-5.7,2.9-8.3,4.7-2.7-2.5-5.7-4.6-8.9-6.5.5-3.4.7-6.9.8-10.3-4-1.9-8.1-3.3-12.4-4.2-1.8,2.9-3.3,5.9-4.6,9-3.3-.5-6.6-.5-9.9,0-1.3-3.1-2.9-6.1-4.6-9-4.3.9-8.5,2.4-12.4,4.2,0,3.4.3,6.9.8,10.3-3.2,1.8-6.2,4-8.9,6.5-2.6-1.8-5.4-3.4-8.3-4.7-3.2,3.3-6,6.9-8.4,10.9,1.8,2.8,3.6,5.6,5.7,8.2v24.8h-.1ZM22.9,83.6v3.9c0,27.9,82.1,27.9,82.2,0v-3.9l-13.5,1.2-.5,7c0,.7-.6,1.1-1.4,1.3l-16.4,1.1c-.8,0-1.3-.4-1.6-1.1l-1-6.6h-13.3l-1,6.6c-.3.7-.8,1.1-1.6,1.1l-16.4-1.1c-.8-.2-1.3-.6-1.4-1.3l-.5-7-13.5-1.2h-.1Z"/>
      <path class="cls-34" d="M61.1,72.9c0,3.4,5.9,3.4,5.9,0v-8.7c0-3.4-5.9-3.4-5.9,0v8.7Z"/>
      <circle class="cls-34" cx="85.5" cy="65.4" r="9.1"/>
      <circle class="cls-34" cx="42.5" cy="65.4" r="9.1"/>
    </g>
    <g>
      <circle class="cls-15" cx="43.3" cy="66.1" r="6.1"/>
      <circle class="cls-15" cx="84.7" cy="66.1" r="6.1"/>
    </g>
  </g>
  <g class="cls-43">
    <path class="cls-7" d="M22.5,86.3h0Z"/>
    <path class="cls-7" d="M27.7,96.7h-.1.1Z"/>
    <path class="cls-7" d="M32.9,101.9h0c0,0,0,0,0,0h0Z"/>
    <path class="cls-7" d="M48.5,107.2h0Z"/>
    <path class="cls-7" d="M53.8,112.4h0c0,0,0,0,0,0h0Z"/>
    <path class="cls-7" d="M74.5,112.2h0c0,0,0,0,0,0h0Z"/>
    <path class="cls-7" d="M79.7,107h0c0,0,0,0,0,0h0Z"/>
    <path class="cls-7" d="M95.3,23.9h0,0Z"/>
    <path class="cls-7" d="M95.3,101.8h0c0,0,0,0,0,0h0Z"/>
    <path class="cls-7" d="M100.5,96.6h0c0,0,0,0,0,0h0Z"/>
    <path class="cls-7" d="M105.7,34.3h0Z"/>
    <path class="cls-7" d="M105.7,86.2h0Z"/>
    <path class="cls-29" d="M32.8,23.9h0Z"/>
    <path class="cls-29" d="M95.3,23.9h0,0Z"/>
    <path class="cls-7" d="M48.4,101.9v5.2h-15.2s0,0-.4-.2v-5h15.6Z"/>
    <rect class="cls-7" x="48.4" y="107.2" width="5.2" height="5.2"/>
    <path class="cls-7" d="M74.5,112.4v4.9c-6.9,0-13.9,0-20.8.2v-5.1h20.8Z"/>
    <rect class="cls-7" x="74.5" y="107.2" width="5.2" height="5.2"/>
    <rect class="cls-7" x="79.7" y="101.9" width="15.6" height="5.2"/>
    <rect class="cls-7" x="32.8" y="18.6" width="62.5" height="5.2"/>
    <rect class="cls-7" x="95.3" y="23.9" width="5.2" height="5.2"/>
    <rect class="cls-7" x="95.3" y="96.7" width="5.2" height="5.2"/>
    <rect class="cls-7" x="100.5" y="86.3" width="5.2" height="10.4"/>
    <path class="cls-7" d="M110.8,86.3h-5.1v-52.1h4.9c0,17.4,0,34.7.2,52.1Z"/>
    <rect class="cls-7" x="100.5" y="29.1" width="5.2" height="5.2"/>
    <rect class="cls-7" x="17.2" y="34.3" width="5.2" height="52.1"/>
    <path class="cls-7" d="M27.6,29.1v5.2h-5.1v-5.1h5.2-.1Z"/>
    <rect class="cls-7" x="22.4" y="86.3" width="5.2" height="10.4"/>
    <rect class="cls-7" x="27.6" y="96.7" width="5.2" height="5.2"/>
    <path class="cls-7" d="M32.8,23.9v5.1h-5.2v-5.2h5.2Z"/>
    <path class="cls-29" d="M22.4,86.2h0Z"/>
    <path class="cls-29" d="M22.5,34.3h0Z"/>
    <path class="cls-7" d="M22.4,34.2h0Z"/>
    <path class="cls-7" d="M27.7,29.1h0c0-.1.1-.1.1-.1h-.1Z"/>
    <path class="cls-7" d="M32.8,23.9h0Z"/>
    <path class="cls-29" d="M105.7,34.3h0Z"/>
    <path class="cls-29" d="M105.7,86.2h0Z"/>
    <path class="cls-29" d="M53.7,112.3h0,0Z"/>
    <path class="cls-29" d="M74.5,112.4h0,0Z"/>
    <path class="cls-29" d="M32.9,101.9h0,0Z"/>
    <path class="cls-29" d="M48.5,101.9h0Z"/>
    <path class="cls-29" d="M48.5,107.1h0Z"/>
    <path class="cls-29" d="M79.7,101.9h0Z"/>
    <path class="cls-29" d="M79.6,107.1h0c0,0,0,0,0,0Z"/>
    <path class="cls-29" d="M95.3,101.9h0,0Z"/>
    <path class="cls-29" d="M27.6,96.6h0Z"/>
    <path class="cls-29" d="M22.5,86.3h0Z"/>
    <path class="cls-29" d="M27.7,86.3h0c0,0,0,0,0,0Z"/>
    <path class="cls-29" d="M100.5,86.2h0c0,0,0,0,0,0Z"/>
    <path class="cls-29" d="M100.5,96.6h0c0,0,0,0,0,0Z"/>
    <path class="cls-29" d="M105.7,86.3h0Z"/>
    <path class="cls-29" d="M100.5,34.3h0Z"/>
    <path class="cls-29" d="M105.7,34.3h0Z"/>
    <path class="cls-29" d="M95.3,24h0Z"/>
    <path class="cls-29" d="M95.3,29.1h0Z"/>
    <path class="cls-29" d="M32.8,101.8h0Z"/>
    <path class="cls-29" d="M27.7,96.7h-.1.1Z"/>
    <path class="cls-29" d="M32.9,96.7h0Z"/>
    <path class="cls-29" d="M95.3,96.6h0,0Z"/>
    <path class="cls-29" d="M95.2,101.9h0Z"/>
    <path class="cls-29" d="M100.5,96.7h0,0Z"/>
    <path class="cls-29" d="M53.6,112.2h0Z"/>
    <path class="cls-29" d="M48.5,107.1h0Z"/>
    <path class="cls-29" d="M53.7,107.2h0Z"/>
    <path class="cls-29" d="M74.5,107.1h0,0Z"/>
    <path class="cls-29" d="M74.4,112.3h0Z"/>
    <path class="cls-29" d="M79.7,107.2h0,0Z"/>
    <path class="cls-2" d="M95.3,24v5.1h-62.5v-5.2h62.5Z"/>
    <path class="cls-2" d="M32.8,23.9h0Z"/>
    <path class="cls-2" d="M32.7,29.1h0c0,.1,0,0,0,0h0Z"/>
    <path class="cls-2" d="M95.3,29.1h0c0,.1-.2.2-.3.3-1.4.6-3,.4-4.5.4h-.7c-5.1.1-10.1.1-15.2,0h-20.8c-5.1,0-10.3.1-15.4,0h0v-.8h57.2-.2Z"/>
    <path class="cls-2" d="M95.3,23.9h0,0Z"/>
    <path class="cls-2" d="M27.6,34.3v52.1h-5.1v-52h5.2-.1Z"/>
    <path class="cls-2" d="M22.5,86.3h0Z"/>
    <path class="cls-2" d="M22.5,34.2h0Z"/>
    <path class="cls-2" d="M28.4,60.2h0v5.3h0v5.2h0v5.2h0v.5h0v4.8c0,1.6.3,3.3-.4,4.9,0,0-.2.2-.3.3h0v-52.2h0c1,1.5.7,3.2.7,4.8v.4h0c0,5.2.1,10.3,0,15.4v5.3h0Z"/>
    <path class="cls-29" d="M27.6,29.1h.1-.1Z"/>
    <path class="cls-29" d="M32.8,29.1h0Z"/>
    <path class="cls-29" d="M32.8,23.9h0Z"/>
    <path class="cls-29" d="M22.5,34.3h0Z"/>
    <path class="cls-29" d="M27.7,29.1h0Z"/>
    <path class="cls-29" d="M27.7,34.2h0c0,0,0,0,0,0h0Z"/>
    <path class="cls-2" d="M105.7,34.4v51.9h-5.2v-52.1h5.1v.2Z"/>
    <path class="cls-2" d="M105.7,34.3h0Z"/>
    <path class="cls-2" d="M100.4,34.3h0v52.1h0l-.3-.3c-.6-1.4-.4-3-.4-4.5s0-.3,0-.4h0v-5.2h0v-5.2h0v-5.2h0v-5.2h0v-5.2h0c0-5.2,0-10.2,0-15.3v-.7c0-1.5-.2-3,.4-4.5,0,0,.2-.2.3-.3h0Z"/>
    <path class="cls-2" d="M105.7,86.2h0Z"/>
    <path class="cls-2" d="M74.5,107.2v5.1h-20.6v-5.1h20.8-.2Z"/>
    <path class="cls-2" d="M53.7,112.3h0c0,0,0,0,0,0h0Z"/>
    <path class="cls-2" d="M53.6,107.2h0s.2-.2.3-.3c1.4-.6,3-.4,4.5-.4h11.2c1.5,0,3-.2,4.5.4l.3.3h-20.8Z"/>
    <path class="cls-2" d="M74.4,112.3h0c0,0,0,0,0,0h0Z"/>
    <path class="cls-2" d="M48.4,96.7v5.2h-15.5v-5.1h15.6,0Z"/>
    <path class="cls-2" d="M32.9,101.9h0c0,0,0,0,0,0h0Z"/>
    <path class="cls-2" d="M48.8,101.6c0,0-.2.2-.3.3h0v-5.2h-15.6s.2-.2.3-.3c1.6-.7,3.2-.4,4.9-.4h5.2c1.7,0,3.5-.3,5.1.5,0,0,0,0,0,.2,0,0,0,0,0,.2.8,1.5.6,3.1,0,4.6h.2Z"/>
    <path class="cls-2" d="M53.6,101.9v5.2h-5.1v-5.1h5.2-.1Z"/>
    <path class="cls-2" d="M48.5,107.1h0Z"/>
    <path class="cls-2" d="M53.7,107.1h0v-5.2h-5.2c1.5-1.1,3.2-.8,4.9-.4h0c0,0,.2,0,.3.2h0c0,0,0,.3.2.3.5,1.7.7,3.3-.3,4.9v.2Z"/>
    <path class="cls-2" d="M95.3,96.7v5.1h-15.5v-5.2h15.6,0Z"/>
    <path class="cls-2" d="M79.7,96.7v5.2h0l-.3-.3c-.5-1.6-.7-3.2,0-4.7h0c0,0,0-.2,0-.3,1.6-.9,3.4-.5,5.1-.5h5.6c1.5,0,3-.2,4.5.4l.3.3h-15.6.2Z"/>
    <path class="cls-2" d="M95.2,101.9h0c0,0,0,0,0,0h0Z"/>
    <path class="cls-2" d="M79.7,101.9v5.1h-5.1v-5.2h5.2,0Z"/>
    <path class="cls-2" d="M74.5,101.9v5.2h0c-1-1.5-.8-3.2-.4-4.8,0,0,0-.2.2-.3h0c0,0,0-.2.2-.3h0c1.7-.5,3.4-.7,4.9.4h-5.2l.2-.2Z"/>
    <path class="cls-2" d="M79.6,107.1h0c0,0,0,0,0,0h0Z"/>
    <path class="cls-2" d="M32.8,86.3v10.4h-5.1v-10.3h5.2,0Z"/>
    <path class="cls-2" d="M27.7,96.7h-.1.1Z"/>
    <path class="cls-2" d="M32.9,96.7h0v-10.4h-5.2c1.7-1.1,3.4-1,5.2,0h0c1,1.5.7,3.2.7,4.8v.4h0c0,1.8.4,3.6-.7,5.2Z"/>
    <path class="cls-2" d="M100.5,86.3v10.3h-5.1v-10.4h5.2,0Z"/>
    <path class="cls-2" d="M95.3,86.3v10.4h0c-1.1-1.6-.6-3.4-.7-5.1h0v-.4c0-1.6-.3-3.3.6-4.8h0c1.7-.9,3.4-1,5.1,0h-5.2.2Z"/>
    <path class="cls-2" d="M100.5,96.6h0c0,0,0,0,0,0h0Z"/>
    <rect class="cls-2" x="95.3" y="29.1" width="5.2" height="5.2"/>
    <path class="cls-2" d="M100.5,34.3h0c-1.7,1.1-3.4,1-5.2,0h0c-.9-1.7-1-3.4,0-5.1h0v5.2h5.2Z"/>
    <path class="cls-21" d="M53.7,34.3h0c-.7.6-1.6.7-2.4.7h-10.8c-.9,0-1.7,0-2.5-.6h0c0,0,0,0,0,0v-5.2h15.6c.2.3.3.5.4.8.7,1.5.5,2.9-.3,4.4h0Z"/>
    <path class="cls-21" d="M90.1,34.3h0c-.7.6-1.6.7-2.5.7h-10.7c-.9,0-1.7,0-2.5-.6h0c-.9-1.5-1-2.9-.4-4.4,0-.3.3-.5.4-.8h15.6c.2.2.3.5.4.7h0c.7,1.5.5,3-.3,4.5h0Z"/>
    <path class="cls-31" d="M69.3,34.3h0c0,0-10.4,0-10.4,0h0c0,0,0,0,0,0h0c-.9-1.5-1-3-.3-4.4,0-.3.3-.5.4-.8h10.4c.2.3.3.5.4.8.7,1.5.5,3-.3,4.4h-.2Z"/>
    <path class="cls-41" d="M95.3,29.1v5.2h0l-.2.2c-1.5.6-3.1.6-4.6,0,0,0-.2-.2-.3-.3h0v-5.2h5.2,0Z"/>
    <rect class="cls-41" x="32.8" y="29.1" width="5.2" height="5.2"/>
    <path class="cls-41" d="M32.8,29.2h0Z"/>
    <path class="cls-41" d="M38,34.3h0c-1.5,1.1-3.2.7-4.8.3h0s0,0-.2,0l-.2-.2s0,0,0-.2c0,0,.2,0,.3.2h5.2-.1Z"/>
    <path class="cls-27" d="M58.8,29.1v5.2h0l-.3.3c-1.5.6-3.1.6-4.6,0l-.3-.3h0v-5.2s5.2,0,5.2,0Z"/>
    <path class="cls-27" d="M74.5,29.1v5.2h0s-.2.2-.3.3c-1.5.6-3.1.6-4.6,0,0,0-.2-.2-.3-.3h0v-5.3h5.2Z"/>
    <path class="cls-21" d="M33,55.1h0s0,0,0,0h0c-1.5.9-3,1-4.4.3-.3,0-.5-.3-.8-.4v-15.6c.3-.2.5-.3.8-.4,1.5-.7,3-.5,4.4.3h0c.6.8.7,1.8.6,2.7-.3,4.3.7,8.7-.6,13h0Z"/>
    <path class="cls-27" d="M32.9,60.3h0c-1.5.8-2.9,1-4.4.3-.3,0-.5-.3-.8-.4v-5.2h5.2l.3.3c.5,1.7.8,3.3-.3,4.9h0Z"/>
    <path class="cls-19" d="M32.9,75.9h0c-1.5.8-3,1-4.4.3h0c-.3,0-.5-.3-.8-.4v-5.2c.3-.2.5-.3.8-.4,1.5-.7,3-.5,4.4.3h0c1,1.7.9,3.5,0,5.2v.2Z"/>
    <path class="cls-41" d="M32.9,39.4h0c0,0-5.2,0-5.2,0v-5.2h4.9s0,0,0-.2c0,0,.2,0,.3.2,0,0,0,.2.2.3.9,1.6.9,3.2,0,4.7h0Z"/>
    <path class="cls-17" d="M33.1,86s-.2.2-.3.3h-5.2v-5.2c.2-.2.5-.3.7-.4,1.4-.6,2.9-.5,4.4.2h0c1,1.6.8,3.3.3,5h0Z"/>
    <path class="cls-13" d="M33.1,70.3s-.2.2-.3.3h-5.2v-5.2c.3-.2.5-.3.8-.4,1.4-.6,2.9-.4,4.4.2h0c1.1,1.6.8,3.2.3,4.9v.2Z"/>
    <path class="cls-24" d="M33.1,80.8s-.2.2-.3.3h-5.2v-5.2h5.2l.2.2c.6,1.5.6,3.1,0,4.6h0Z"/>
    <path class="cls-31" d="M32.9,65.4h-5.2v-5.2h5.2l.3.3c.5,1.6.8,3.3-.3,4.8h0Z"/>
    <path class="cls-2" d="M32.8,34.3c0,0-.2,0-.3-.2,0,0,0,0,0,.2h-4.9v-5h5v5.1h.1Z"/>
    <path class="cls-2" d="M27.6,29.1h.1-.1Z"/>
    <path class="cls-2" d="M27.7,34.2h-.1c0,0,0,0,0,0h.1Z"/>
    <path class="cls-2" d="M32.5,34.1c0,0,.2,0,.3.2h-.2s0,0,0-.2Z"/>
    <path class="cls-2" d="M32.8,29.1h0c0,.1,0,0,0,0h0Z"/>
    <path class="cls-21" d="M100.5,39.5v15.6c-.3.2-.5.3-.8.4-1.5.7-3,.5-4.4-.3h0c-.6-.7-.7-1.6-.7-2.5v-10.7c0-.9,0-1.7.6-2.5h0c1.5-.9,3-1,4.5-.3.3,0,.5.2.7.4h.1Z"/>
    <path class="cls-41" d="M100.5,34.3v5.2h-5.2s-.2-.2-.3-.3c-.5-1.6-.7-3.2.3-4.8h5.2Z"/>
    <path class="cls-27" d="M100.5,70.7v5.2c-.3.2-.5.3-.8.4-1.5.7-3,.5-4.4-.3h0c-1-1.7-.9-3.5,0-5.2h0c1.5-.8,3-1,4.4-.3.3,0,.5.2.8.4v-.2Z"/>
    <path class="cls-21" d="M100.5,75.9v5.2c-.2.2-.5.3-.7.4-1.4.6-2.9.5-4.4-.2h0c-1.1-1.6-.8-3.2-.3-4.9l.3-.3h5.2v-.2Z"/>
    <path class="cls-41" d="M100.5,81.1v5.2h-5.3c0-.2-.2-.2-.3-.3-.5-1.6-.8-3.3.3-4.8h5.3Z"/>
    <path class="cls-23" d="M100.5,65.5v5.2h-5.2l-.3-.3c-.5-1.7-.8-3.4.3-4.9h0c1.5-.6,3-.8,4.4-.2.3,0,.5.3.8.4v-.2Z"/>
    <path class="cls-4" d="M100.5,60.3v5.2h-5.2c-1.1-1.7-.9-3.4,0-5.1h0c1.5-.8,3-1,4.4-.3.3,0,.5.3.8.4v-.2Z"/>
    <path class="cls-27" d="M100.5,55.1v5.2h-5.2l-.2-.2c-.6-1.5-.6-3.1,0-4.6,0,0,.2-.2.3-.3h5.2-.1Z"/>
    <path class="cls-21" d="M69.7,106.4h0c0,.2-.2.5-.4.7h-10.4c-.2-.2-.3-.5-.4-.7-.7-1.5-.5-3,.2-4.5h0c3.5-1.1,7-1,10.5,0h0c.8,1.6.9,3.1.3,4.6h.2Z"/>
    <path class="cls-41" d="M58.8,101.9v5.2h-5.2v-5.2h0c1.6-1,3.3-1,4.9,0h.2Z"/>
    <path class="cls-41" d="M74.5,101.9v5.2h-5.2v-5.2h0c1.6-1,3.3-1,5,0h0Z"/>
    <path class="cls-35" d="M74.7,101.6c0,0,0,.2-.2.4h-20.8c0,0-.2-.3-.3-.4h0c-.6-1.1-.2-2.4-.8-3.5-1.1-.9-2.7-.2-3.8-1.1,0,0-.2,0-.2-.2h-5.2c-.2-.3-.3-.5-.4-.8-.7-1.5-.5-3,.3-4.4h0c3.3-1.4,6.9-.5,10.3-.7h.5c1.6,0,3.2-.3,4.7.6h0c.9,1.1.4,2.7,1.2,4.1,2.8.7,5.9,0,8.9.4h.6c1.5,0,3-.2,4.5.3h0s0,0,.2,0l.2.2s0,0,0,.2h0c.5,1.6.7,3.1,0,4.6l.2.2Z"/>
    <path class="cls-1" d="M38.4,96c0,.2-.2.5-.4.7h-5.2v-5.2c.3-.2.5-.3.8-.4,1.5-.7,3-.5,4.5.3h0c.8,1.5,1,3,.3,4.5h0Z"/>
    <path class="cls-21" d="M43.2,91.5v5.2h-5.2v-5.2h0l.2-.2c1.5-.6,3.1-.6,4.6,0l.2.2h.2Z"/>
    <rect class="cls-18" x="48.4" y="96.7" width="5.2" height="5.2"/>
    <path class="cls-35" d="M85.3,96c0,.3-.3.5-.4.8h-5.2s0,0-.2,0c-1.5.9-3.1.9-4.6,0,0,0-.2,0-.4-.2,0,0,0-.2-.2-.3-.9-1.6-.8-3.2,0-4.9h0c1.5-1,3.2-.7,4.8-.7h.4c1.8,0,3.7-.4,5.3.6h0c.7,1.5.9,3,.2,4.4l.3.2Z"/>
    <path class="cls-21" d="M90.5,96c0,.2-.2.5-.4.7h-5.2v-5.2h0c1.5-1,3.1-.7,4.8-.3h0s0,0,.2.2h0c0,0,0,.3.2.3.4,1.4.6,2.9,0,4.2h.2Z"/>
    <path class="cls-1" d="M95.3,91.5v5.2h-5.2v-5.2h0c1.4-.9,2.9-1,4.3-.3.2,0,.5.2.7.4h0Z"/>
    <rect class="cls-39" x="74.5" y="96.7" width="5.2" height="5.2"/>
    <path class="cls-5" d="M38.1,91.5h-5.2v-5.2h0c1.5-1,3.2-.8,4.8-.4,0,0,.2,0,.3.2h0c0,0,0,.3.2.3h0c.5,1.6.7,3.3-.3,4.8v.3Z"/>
    <path class="cls-35" d="M95.3,86.3v5.2h-5.2c0,0,0-.2-.2-.3-.9-1.6-.8-3.3,0-5h0c1.7-.9,3.4-.9,5.1,0h.3Z"/>
    <path class="cls-39" d="M54.4,39.4h-.8v5.4s0,0-.2,0h0c-1.2.7-2.7,0-3.8.9-.7,1.3,0,2.8-1,4h0c-1.1,1-2.8.3-4,1.1-.8,1.1-.2,2.6-.9,3.8h0s0,.2,0,.2c0,0,0,.2-.2.2-1.5.8-3.2.5-4.8.5h-.4c-1.7,0-3.6.4-5.2-.7h0v-20.8h20.8c1.1,1.6.6,3.4.7,5.1v.2Z"/>
    <path class="cls-39" d="M95.3,39.5v15.6h0c-1.6,1.1-3.3.9-5,.2h0c-1-1.3-.3-3-1.2-4.2-1.2-.7-2.8,0-3.9-1h0c-.9-1.2-.3-2.8-1.1-4-1.2-.9-2.8,0-4-1.1h0c-.9-1.2-.3-2.8-1.1-4-1.2-.9-2.9,0-4-1.1h0c-.8-1.8-.9-3.5.2-5.2h15.6c1,1.1.4,2.7,1.1,3.9,1.1.9,2.9,0,4,1.2h0l-.5-.3Z"/>
    <rect class="cls-2" x="58.8" y="34.3" width="10.4" height="5.2"/>
    <path class="cls-2" d="M58.8,34.3v5.4h0c0,0,0-.2-.2-.3-.5-1.7-.7-3.3.3-4.9h0v-.2Z"/>
    <path class="cls-2" d="M69.4,39.4h0v-5.3h0c1.1,1.7.9,3.4,0,5.1v.2Z"/>
    <path class="cls-11" d="M95.3,39.5h-5.2v-5.2h5.2v5.2Z"/>
    <path class="cls-9" d="M58.8,34.3v5.2h-5.1v-5.2h5.2-.1Z"/>
    <path class="cls-22" d="M74.5,34.3v5.2h-5v-5.2h5.2-.2Z"/>
    <path class="cls-9" d="M32.8,55.1h5.2c1.1,1.7,1,3.5,0,5.3-1.8,1-3.5,1.1-5.3,0v-5.2h0Z"/>
    <path class="cls-28" d="M32.8,75.9v-5.2c1.7-1.1,3.5-1,5.3,0,1,1.8,1,3.5,0,5.3-1.8,1-3.5,1.1-5.3,0h0Z"/>
    <path class="cls-10" d="M38,86.3h-5.2v-5.2c1.7-1.1,3.5-1,5.3,0,1,1.8,1.1,3.5,0,5.3h0Z"/>
    <path class="cls-2" d="M38,70.7h-5.2v-10.4h5.2l.3.3c.7,1.6.3,3.2.4,4.9,0,1.6.3,3.3-.4,4.9,0,0-.2.2-.3.3Z"/>
    <path class="cls-39" d="M38,81.1h-5.2v-5.2h5.2c0,0,.2.2.3.3.6,1.5.6,3.1,0,4.6,0,0-.2.2-.3.3Z"/>
    <path class="cls-14" d="M95.3,70.7v5.2c-1.7,1.1-3.5,1-5.3,0-1-1.8-1-3.5,0-5.3,1.8-1,3.5-1.1,5.3,0h0Z"/>
    <path class="cls-11" d="M90.1,75.9h5.2v10.4h-5.2c-1.2-1.5-.6-3.3-.7-5,0-1.7-.3-3.4.4-5.1,0,0,.2-.2.3-.3Z"/>
    <path class="cls-2" d="M95.3,70.7h-5.2l-.3-.3c-.7-1.6-.3-3.4-.4-5,0-1.7-.4-3.6.7-5.1,1.8-.9,3.5-1,5.2,0v10.4h0Z"/>
    <path class="cls-33" d="M95.3,60.3h-5.2c0,0-.2-.2-.3-.3-.6-1.5-.6-3.1,0-4.6,0,0,.2-.2.3-.3h5.2s0,5.2,0,5.2Z"/>
    <path class="cls-39" d="M38,86.3v-5.2c1.6-1.2,3.4-.7,5.2-.8,1.7,0,3.5-.3,5.1.5,1.2,1.1.5,2.8,1.2,4.1,1.3,1,3.2,0,4.3,1.4.7,1.8.9,3.5-.3,5.1h-10.4c-1.1-1.1-.4-2.7-1.1-3.9-1.2-1-2.9,0-4.1-1.3h0Z"/>
    <path class="cls-2" d="M53.6,91.5v-5.2c-1.2-1.5-.7-3.3-.7-5s-.2-3.4.3-5.1c.2-.3.4-.5.7-.7,1.8-.4,3.5-.8,5.2.4.9,1.7.6,3.5.5,5.3,0,3.3.5,6.7-.4,9.9,0,0-.2.2-.3.4h-5.3Z"/>
    <path class="cls-2" d="M69.2,96.7h-10.4v-5.2c1.6-1.2,3.4-.7,5.2-.8,1.8,0,3.6-.4,5.3.7,1,1.8,1,3.5,0,5.3h0Z"/>
    <path class="cls-30" d="M69.2,96.7v-5.2c0,0,.2-.2.3-.3,1.5-.6,3.1-.6,4.6,0,0,0,.2.2.3.3v5.2h-5.2Z"/>
    <path class="cls-6" d="M38,86.3h5.2v5.2h-5.2v-5.2Z"/>
    <path class="cls-39" d="M90.1,81.1v10.4h-10.4c-1.1-1.6-1-3.3-.2-5.1,1.1-1.3,2.8-.5,4.2-1.3,1-1.2,0-3.1,1.4-4.3,1.7-.8,3.4-.9,5.1.2h0Z"/>
    <path class="cls-40" d="M79.7,86.3v5.2h-5.2c-1.1-1.7-1-3.4-.2-5.1,1.6-1.2,3.3-.9,5.1-.4,0,0,.2.2.4.3h-.1Z"/>
    <path class="cls-2" d="M58.8,39.7v15.4h-5.2v-15.6h5.1c0,0,.1.2.1.2Z"/>
    <path class="cls-2" d="M53.6,55.1c0,0,0,.2.2.3,0,0,0,0-.2,0l-.2-.2v-.2h0c-.6-1.5-.4-3-.4-4.6v-.4h0c0-1.7-.4-3.4.5-4.9h0c0,0,0-.2.2-.3v10.4Z"/>
    <path class="cls-2" d="M58.8,55.1h0q0,0,0,0Z"/>
    <path class="cls-2" d="M58.8,39.5v.2h0c0,0,.2,0,.2,0h-.1Z"/>
    <path class="cls-2" d="M53.9,60.2h0v.3c-1.2.8-2.6.6-4,.6h-8.8c-1,0-2,0-2.8-.8h0v-5.2h5.2c0,0,.2-.2.3-.2h0c1.5-.9,3.2-.5,4.9-.5h.4c1.5,0,3.1-.3,4.5.5,0,0,.2,0,.3.2,0,0,0,.2.2.3,0,0,0,0-.2,0v5s0,0,.2,0h-.2Z"/>
    <path class="cls-3" d="M53.6,44.7v5.2c-.2.2-.5.3-.7.4-1.3.6-2.7.4-4.1,0l-.3-.3h0v-5.2h5.2-.1Z"/>
    <path class="cls-3" d="M48.4,55.1h-5.2v-5.2h5.2c1.1,1.7,1.1,3.5,0,5.2Z"/>
    <path class="cls-35" d="M79.7,39.5v5.2h0s-.2.2-.3.3c-1.6.5-3.2.7-4.7,0h0v-5.2h5.2v-.2Z"/>
    <path class="cls-16" d="M79.7,44.7h5.2v5.2c0,0-.2.2-.4.3-1.7.5-3.4.8-5-.4-.8-1.7-.9-3.5.2-5.1Z"/>
    <path class="cls-35" d="M84.9,49.9h5.2v5.2c-1.7,1.1-3.5,1-5.3,0-.9-1.8-1-3.6.1-5.3Z"/>
    <rect class="cls-25" x="58.8" y="39.5" width="5.2" height="20.8"/>
    <path class="cls-25" d="M58.8,55.2h0c0,0,0,0,0,0Z"/>
    <path class="cls-25" d="M59,60.6s0,0-.2,0l-.2-.2v-.2h0c0,0,.2,0,.3.2,0,0,0,.2.2.3Z"/>
    <path class="cls-25" d="M64.1,60.3h0Z"/>
    <rect class="cls-39" x="64" y="39.5" width="5.2" height="20.8"/>
    <path class="cls-39" d="M64,60.3h0Z"/>
    <path class="cls-39" d="M69.3,39.5h0Z"/>
    <path class="cls-39" d="M69.6,60.1s0,.2-.2.2c0,0,0,0-.2.2,0,0,0,0-.2,0,0,0,0-.2.2-.3,0,0,.2-.2.4-.2Z"/>
    <path class="cls-2" d="M74.5,39.6v15.5h-5.2v-15.5h5.2Z"/>
    <path class="cls-2" d="M69.3,39.5h0,0Z"/>
    <path class="cls-2" d="M74.4,39.5h0,0Z"/>
    <path class="cls-2" d="M75.2,50.3c0,1.5.2,3-.3,4.5h0s0,.2-.2.2c0,0,0,0-.2.2,0,0,0,0-.2.2,0,0,0-.2.2-.4v-10.4s0,0,0,.2c1,1.5.5,3.2.6,4.8v.6h0Z"/>
    <path class="cls-2" d="M38,75.9v-5.2c.2-.2.4-.4.6-.4,5-.5,10-.9,15,.2,1.1,1.8,1.1,3.6,0,5.4-1.6,1.2-3.4.7-5.2.8h-5.3c-1.8,0-3.6.4-5.2-.8h.1Z"/>
    <path class="cls-25" d="M58.8,65.5h0c-.3,0,0,0-.2.2-6.6,1-13.2.6-19.8.2h-.2c-.3,0-.5-.3-.7-.5v-5.2h15.6s0,0,.2,0h0c0,0,4.9,0,4.9,0v-.2h0c0,0,.2,0,.3.2,0,0,0,.2.2.3,0,0,0,0-.2,0v5h0Z"/>
    <path class="cls-39" d="M59.2,70.5s0,0,0,.2c0,0,0,0-.2.2,0,0,0,0-.2,0h0c-1.6.5-3.2.7-4.8-.2,0,0,0,0-.2,0h-15.6v-5.2h20.8v5.1c0,0,.2,0,.3-.2h0Z"/>
    <path class="cls-37" d="M38,75.9h5.2c1.1,1.7,1.1,3.5,0,5.2h-5.2v-5.2Z"/>
    <path class="cls-2" d="M90.1,70.7v5.2c-1.6,1.2-3.4.7-5.1.8h-5.1c-1.7,0-3.4.2-5.1-.4-.3-.2-.5-.4-.7-.7-.4-1.8-.8-3.6.5-5.2,5.2-.7,10.4-1.2,15.5.3Z"/>
    <path class="cls-38" d="M84.9,75.9h5.2v5.2h-5.2l-.3-.3c-.6-1.7-.7-3.3.3-4.9Z"/>
    <path class="cls-39" d="M90.1,65.5v5.2h-15.7c-1.5,1-3.2.7-4.8.3h0s-.2,0-.2-.2l-.2-.2s0,0,0-.2c0,0,.2,0,.4.2v-5.2h0s0,0,0-.2c.9-.5,1.8-.5,2.8-.5h14.7c.8,0,1.7,0,2.4.3.3,0,.5.3.7.5h-.1Z"/>
    <path class="cls-25" d="M90.1,60.3v5.2h-20.8v-4.9s0,0-.2,0c0,0,0-.2.2-.3,0,0,.2-.2.4-.2,0,0,0,.2-.2.2h5v-.8h0c4.2,0,8.4,0,12.6,0s2,0,2.8.8h0Z"/>
    <path class="cls-2" d="M90.1,55.1v5.2h-15.6v-5s0,0-.2.2c0,0,0-.2.2-.4,0,0,.2-.2.4-.2,1.4-.8,2.9-.5,4.4-.5s.3,0,.4,0h0c1.7,0,3.4-.4,4.9.6,0,0,.2,0,.3.2h5.2,0Z"/>
    <path class="cls-3" d="M43.2,81.1v-5.2h5.2c1.1,1.6.9,3.2.3,4.9,0,0-.2.2-.3.3,0,0-5.2,0-5.2,0Z"/>
    <path class="cls-3" d="M53.6,81.1v5.2h-5.2v-5.2c1.7-1.1,3.5-1.1,5.2,0Z"/>
    <path class="cls-39" d="M64.6,90.7h0c0,.4-.3.6-.5.9h-5.2v-15.6s0,0,0-.2c-.9-1.6-.9-3.1,0-4.7,0,0,0-.2.2-.4,0,0,.2,0,.3-.2,0,0,0,0,0,.2h5.1c0,.3,0,0,0,.2,1,6.6.6,13.2.2,19.8Z"/>
    <path class="cls-20" d="M53.6,81.1h-5.2v-5.2h5.2v5.2Z"/>
    <path class="cls-20" d="M58.8,70.7v5.2h-5.2v-5.2h5.2Z"/>
    <path class="cls-25" d="M70.1,88.6c0,1,0,2-.8,2.8h-5.2v-20.8h4.9s0,0,0-.2c0,0,.2,0,.4.2,0,0,.2.2.2.4h0c.8,1.4.5,2.9.5,4.4v.4h0c0,4.3,0,8.5,0,12.7h0Z"/>
    <path class="cls-2" d="M69.2,91.5v-15.6c1.7-1.1,3.5-1.1,5.2,0,1.2,1.6.7,3.4.8,5.2,0,1.8.4,3.6-.8,5.2v5.2s-5.2,0-5.2,0Z"/>
    <path class="cls-16" d="M84.9,81.1v5.2h-5.2c-1.1-1.6-.8-3.2-.4-4.9,0-.3.4-.5.6-.7,1.7-.5,3.4-.7,5,.4Z"/>
    <path class="cls-32" d="M79.7,81.1v5.2h-5.2v-5.2c1.7-1.1,3.5-1.1,5.2,0Z"/>
    <rect class="cls-20" x="48.4" y="49.9" width="5.2" height="5.2"/>
    <path class="cls-20" d="M58.8,55.2h0v5.1c0,0-.2,0-.3-.2h0s0,0,0,.2h-4.9c0,0,0,0-.2,0v-5s0,0,.2,0c0,0,0-.2-.2-.3h5.2c0,0,.1.1.1.1Z"/>
    <path class="cls-20" d="M53.8,55.4s0,0-.2,0v-.2c0,0,0,.2.2.3Z"/>
    <path class="cls-20" d="M53.6,60.3s0,0,.2,0h0c0,0-.2,0-.2,0Z"/>
    <path class="cls-20" d="M58.5,60.1c0,0,.2,0,.3.2h-.2v-.2h0Z"/>
    <path class="cls-20" d="M58.8,55.1h0q0,0,0,0Z"/>
    <path class="cls-3" d="M79.7,44.7v5.2h0c0,0-.2.2-.3.3-1.4.5-2.8.7-4.1,0-.2,0-.5-.2-.7-.4v-5.2h5.2,0Z"/>
    <path class="cls-3" d="M84.9,55.1h-5.2c-1.1-1.7-1.1-3.5,0-5.2h5.2v5.2Z"/>
    <path class="cls-2" d="M69.1,60.6s0,0,.2,0v4.9h0v5.2c0,0-.2,0-.4-.2,0,0,0,0,0,.2h-9.9s0,0,0-.2c0,0-.2,0-.3.2v-5h0v-5.1s0,0,.2,0c0,0,0-.2-.2-.3h10.3c0,0,0,.2-.2.3h.1Z"/>
    <path class="cls-2" d="M58.9,65.7h0v-.2h0v.2Z"/>
    <path class="cls-2" d="M59,60.6s0,0-.2,0v-.2c0,0,0,.2.2.3Z"/>
    <path class="cls-2" d="M58.8,70.7c0,0,.2,0,.3-.2,0,0,0,0,0,.2h-.2Z"/>
    <path class="cls-2" d="M64.1,60.3h0Z"/>
    <path class="cls-2" d="M64.2,70.7h-.2.2Z"/>
    <path class="cls-2" d="M68.9,70.5c0,0,.2,0,.4.2h-.2s0,0,0-.2h-.1Z"/>
    <path class="cls-2" d="M69.2,60.3v.2s0,0-.2,0c0,0,0-.2.2-.3Z"/>
    <path class="cls-2" d="M69.2,65.4h0Z"/>
    <path class="cls-20" d="M74.2,55.4s0,0,.2-.2v5h-5s0-.2.2-.2c0,0-.2.2-.4.2v-5.2h5.2c0,0,0,.2-.2.4Z"/>
    <path class="cls-20" d="M69.2,60.3c0,0,.2-.2.4-.2,0,0,0,.2-.2.2h-.2Z"/>
    <path class="cls-20" d="M74.5,55.1v.2s0,0-.2.2c0,0,0-.2.2-.4Z"/>
    <rect class="cls-20" x="74.5" y="49.9" width="5.2" height="5.2"/>
    <path class="cls-20" d="M79.7,81.1h-5.2v-5.2h5.2c1.1,1.7,1.1,3.5,0,5.2Z"/>
    <path class="cls-32" d="M79.7,81.1v-5.2h5.2v5.2h-5.2Z"/>
    <path class="cls-20" d="M74.5,75.9h-5.2v-5.2h5.2v5.2Z"/>
  </g>
  <g>
    <path class="cls-29" d="M77.5,18.6h-27.1q-33.3,0-33.3,33.3v32.7c0,1.1.5,2.1,1.3,2.8,11.7,10,23.4,20,35.1,30,7.6,0,13.4,0,21,0,11.6-10,23.3-20,34.9-30,.8-.7,1.3-1.8,1.3-2.8v-32.7c0-33.3-.1-33.3-33.3-33.3ZM109.1,83.9c0,1.1-.5,2.1-1.3,2.7-11.2,9.6-22.4,19.2-33.6,28.9-7.3,0-12.9,0-20.2,0-11.3-9.6-22.5-19.2-33.8-28.9-.8-.7-1.3-1.7-1.3-2.7v-31.5q0-32,32-32h26.1c31.9,0,32,0,32,32v31.5Z"/>
    <path class="cls-36" d="M77,20.4h-26.1q-32,0-32,32v31.5c0,1.1.5,2.1,1.3,2.7,11.3,9.6,22.5,19.2,33.8,28.9,7.3,0,12.9,0,20.2,0,11.2-9.6,22.4-19.2,33.6-28.9.8-.7,1.3-1.7,1.3-2.7v-31.5c0-32-.1-32-32-32ZM107.4,83.3c0,1-.4,2-1.2,2.6-10.8,9.3-21.6,18.5-32.4,27.8-7,0-12.4,0-19.5,0-10.8-9.3-21.7-18.5-32.5-27.8-.8-.7-1.2-1.6-1.2-2.6v-30.3q0-30.8,30.8-30.8h25.1c30.7,0,30.8,0,30.8,30.8v30.3Z"/>
    <path class="cls-26" d="M76.5,22.2h-25.1q-30.8,0-30.8,30.8v30.3c0,1,.4,2,1.2,2.6,10.8,9.3,21.7,18.5,32.5,27.8,7,0,12.4,0,19.5,0,10.8-9.3,21.6-18.5,32.4-27.8.8-.7,1.2-1.6,1.2-2.6v-30.3c0-30.8-.1-30.8-30.8-30.8ZM99.7,68c-18.1,0-32.7,14.7-32.7,32.7h-5.8c0-18.1-14.7-32.7-32.7-32.7v-5.8c18.1,0,32.7-14.7,32.7-32.7h5.8c0,18.1,14.7,32.7,32.7,32.7v5.8ZM65.1,32.1h-2.2c0,17.6-14.3,31.9-31.9,31.9v2.2c17.6,0,31.9,14.3,31.9,31.9h2.2c0-17.6,14.3-31.9,31.9-31.9v-2.2c-17.6,0-31.9-14.3-31.9-31.9Z"/>
    <path class="cls-36" d="M65.1,32.1h-2.2c0,17.6-14.3,31.9-31.9,31.9v2.2c17.6,0,31.9,14.3,31.9,31.9h2.2c0-17.6,14.3-31.9,31.9-31.9v-2.2c-17.6,0-31.9-14.3-31.9-31.9Z"/>
    <path class="cls-36" d="M66.9,29.5h-5.8c0,18.1-14.7,32.7-32.7,32.7v5.8c18.1,0,32.7,14.7,32.7,32.7h5.8c0-18.1,14.7-32.7,32.7-32.7v-5.8c-18.1,0-32.7-14.7-32.7-32.7ZM97,66.2c-17.6,0-31.9,14.3-31.9,31.9h-2.2c0-17.6-14.3-31.9-31.9-31.9v-2.2c17.6,0,31.9-14.3,31.9-31.9h2.2c0,17.6,14.3,31.9,31.9,31.9v2.2Z"/>
    <path class="cls-12" d="M65.1,32.1h-2.2c0,17.6-14.3,31.9-31.9,31.9v2.2c17.6,0,31.9,14.3,31.9,31.9h2.2c0-17.6,14.3-31.9,31.9-31.9v-2.2c-17.6,0-31.9-14.3-31.9-31.9ZM70.2,71.3c-3.8,3.8-6.2,9.1-6.2,14.9,0-5.8-2.4-11.1-6.2-14.9-3.8-3.8-9.1-6.2-14.9-6.2,5.8,0,11.1-2.4,14.9-6.2,3.8-3.8,6.2-9.1,6.2-14.9,0,11.6,9.4,21,21,21-5.8,0-11.1,2.4-14.9,6.2Z"/>
    <path class="cls-12" d="M85,65.1c-5.8,0-11.1,2.4-14.9,6.2-3.8,3.8-6.2,9.1-6.2,14.9,0-5.8-2.4-11.1-6.2-14.9-3.8-3.8-9.1-6.2-14.9-6.2,5.8,0,11.1-2.4,14.9-6.2,3.8-3.8,6.2-9.1,6.2-14.9,0,11.6,9.4,21,21,21Z"/>
    <path class="cls-34" d="M85,65.1c-5.8,0-11.1,2.4-14.9,6.2-3.8,3.8-6.2,9.1-6.2,14.9,0-5.8-2.4-11.1-6.2-14.9-3.8-3.8-9.1-6.2-14.9-6.2,5.8,0,11.1-2.4,14.9-6.2,3.8-3.8,6.2-9.1,6.2-14.9,0,11.6,9.4,21,21,21Z"/>
  </g>
</svg>