<?xml version="1.0" encoding="UTF-8"?>
<svg id="Camada_1" data-name="Camada 1" xmlns="http://www.w3.org/2000/svg" version="1.1" viewBox="0 0 128 128">
  <defs>
    <style>
      .cls-1 {
        fill: #255aaf;
        stroke: #08295e;
        stroke-width: 4px;
      }

      .cls-2 {
        fill: #283c86;
      }

      .cls-2, .cls-3, .cls-4, .cls-5, .cls-6 {
        stroke-width: 0px;
      }

      .cls-3 {
        fill: #f3a610;
      }

      .cls-4 {
        fill: #0d0702;
      }

      .cls-5 {
        fill: #fff;
      }

      .cls-6 {
        fill: #8c530a;
      }
    </style>
  </defs>
  <rect class="cls-1" x="2" y="2" width="124" height="124" rx="14" ry="14"/>
  <g>
    <path class="cls-4" d="M76,20.4h-23.9q-29.4,0-29.4,29.4v28.9c0,1,.4,1.9,1.2,2.5,10.3,8.8,20.6,17.7,31,26.5,6.7,0,11.8,0,18.5,0,10.3-8.8,20.6-17.6,30.8-26.5.7-.6,1.2-1.5,1.2-2.5v-28.9c0-29.4-.1-29.4-29.4-29.4ZM103.8,78.1c0,.9-.4,1.8-1.1,2.4-9.9,8.5-19.8,17-29.7,25.5-6.5,0-11.4,0-17.9,0-9.9-8.5-19.9-17-29.8-25.5-.7-.6-1.1-1.5-1.1-2.4v-27.8q0-28.3,28.3-28.3h23c28.2,0,28.3,0,28.3,28.3v27.8Z"/>
    <path class="cls-6" d="M75.5,22h-23q-28.3,0-28.3,28.3v27.8c0,.9.4,1.8,1.1,2.4,9.9,8.5,19.9,17,29.8,25.5,6.5,0,11.4,0,17.9,0,9.9-8.5,19.8-17,29.7-25.5.7-.6,1.1-1.5,1.1-2.4v-27.8c0-28.3-.1-28.3-28.3-28.3ZM102.3,77.6c0,.9-.4,1.7-1.1,2.3-9.5,8.2-19.1,16.3-28.6,24.5-6.2,0-11,0-17.2,0-9.6-8.2-19.1-16.4-28.7-24.5-.7-.6-1.1-1.4-1.1-2.3v-26.8q0-27.2,27.2-27.2h22.2c27.1,0,27.2,0,27.2,27.2v26.8Z"/>
    <path class="cls-3" d="M102.3,50.8v26.8c0,.9-.4,1.7-1.1,2.3-9.5,8.2-19.1,16.3-28.6,24.5-6.2,0-11,0-17.2,0-9.6-8.2-19.1-16.4-28.7-24.5-.7-.6-1.1-1.4-1.1-2.3v-26.8q0-27.2,27.2-27.2h22.2c27.1,0,27.2,0,27.2,27.2Z"/>
    <path class="cls-6" d="M66.6,93h-5.2c0-16-12.9-28.9-28.9-28.9v-5.2c16,0,28.9-12.9,28.9-28.9h5.2c0,16,12.9,28.9,28.9,28.9v5.2c-16,0-28.9,12.9-28.9,28.9Z"/>
    <path class="cls-2" d="M65,90.6h-2c0-15.6-12.6-28.2-28.2-28.2v-2c15.6,0,28.2-12.6,28.2-28.2h2c0,15.6,12.6,28.2,28.2,28.2v2c-15.6,0-28.2,12.6-28.2,28.2Z"/>
    <path class="cls-5" d="M64,42.9h0c0,10.3,8.3,18.6,18.6,18.6h0c-10.3,0-18.6,8.3-18.6,18.6h0c0-10.3-8.3-18.6-18.6-18.6h0c10.3,0,18.6-8.3,18.6-18.6Z"/>
  </g>
</svg>